<?xml version="1.0" standalone="no"?>
<!DOCTYPE svg PUBLIC "-//W3C//DTD SVG 20010904//EN"
 "http://www.w3.org/TR/2001/REC-SVG-20010904/DTD/svg10.dtd">
<svg version="1.0" xmlns="http://www.w3.org/2000/svg"
 width="1280.000000pt" height="1280.000000pt" viewBox="0 0 1280.000000 1280.000000"
 preserveAspectRatio="xMidYMid meet">
<metadata>
Created by potrace 1.14, written by Peter Selinger 2001-2017
</metadata>
<g transform="translate(0.000000,1280.000000) scale(0.100000,-0.100000)"
fill="#000000" stroke="none">
<path d="M6807 11934 c-220 -51 -417 -249 -596 -599 -19 -38 -36 -72 -36 -75
-2 -5 -10 -26 -45 -105 -77 -177 -164 -476 -185 -635 -4 -25 -8 -56 -10 -70
-14 -92 -19 -201 -19 -380 0 -236 8 -344 40 -575 12 -93 54 -337 59 -344 1 -3
6 -23 9 -44 3 -20 31 -155 61 -300 l55 -262 -27 -24 c-358 -307 -802 -764
-1041 -1070 -100 -128 -330 -471 -316 -471 3 0 -3 -12 -14 -27 -73 -103 -211
-431 -268 -633 -20 -72 -30 -116 -59 -251 -2 -9 -6 -40 -10 -70 -4 -30 -8 -56
-10 -59 -4 -7 -19 -225 -18 -275 1 -101 6 -205 13 -255 15 -107 21 -146 32
-190 5 -25 12 -54 14 -66 6 -33 60 -203 84 -268 35 -91 140 -292 203 -388 132
-199 297 -382 477 -528 30 -25 57 -47 60 -51 9 -11 214 -146 270 -178 111 -63
274 -138 394 -180 101 -36 296 -89 352 -96 22 -2 53 -8 69 -11 32 -7 47 -9
160 -20 82 -8 320 -8 388 0 26 3 68 9 95 12 60 7 182 30 204 39 18 7 20 2 38
-80 23 -103 149 -696 155 -730 2 -11 6 -31 9 -45 3 -14 8 -36 11 -50 2 -14 7
-36 10 -50 22 -112 29 -202 29 -350 -2 -213 -23 -353 -80 -511 -59 -164 -128
-275 -241 -386 -120 -118 -244 -173 -463 -207 -107 -16 -405 -15 -455 1 -16 6
-50 16 -75 23 -72 21 -154 68 -201 116 l-43 44 69 0 c130 1 222 24 327 83 159
89 270 235 317 417 16 59 19 99 16 185 -7 218 -93 383 -265 513 -19 15 -37 29
-40 32 -12 12 -130 61 -182 75 -219 61 -481 -18 -638 -193 -212 -235 -229
-573 -47 -912 97 -179 287 -384 424 -457 104 -55 148 -75 210 -97 240 -84 567
-79 844 14 79 26 223 92 239 110 3 3 31 23 64 44 86 59 199 178 269 284 34 52
62 97 62 100 1 4 8 21 16 37 56 106 106 292 125 461 12 109 6 378 -11 466 -3
13 -8 39 -11 58 -10 63 -43 223 -69 340 -15 63 -28 126 -31 140 -3 14 -20 97
-39 185 -19 88 -42 194 -51 235 -9 41 -22 99 -29 128 l-13 53 71 36 c66 33
195 110 207 123 3 3 21 17 41 32 52 38 197 182 251 248 217 264 381 646 425
986 10 78 10 374 0 447 -10 74 -50 229 -77 298 -55 141 -157 294 -289 434
-114 120 -294 267 -396 322 -22 11 -56 30 -75 40 -83 46 -242 103 -330 119
-14 2 -34 6 -45 9 -104 22 -343 24 -435 3 -12 -3 -24 26 -35 82 -9 45 -61 286
-75 345 -6 22 -12 51 -14 65 -2 14 -10 48 -16 75 -15 64 -19 83 -26 120 -2 17
-9 45 -14 63 -4 17 -6 32 -3 32 3 0 0 7 -7 15 -7 8 -10 15 -7 15 3 0 -1 26 -8
58 -8 33 -16 70 -19 83 -2 13 -11 55 -20 93 -10 41 -13 73 -7 80 4 6 65 82
134 168 111 138 243 315 287 383 165 254 197 307 297 491 53 98 166 342 189
407 8 23 18 51 23 62 58 127 167 541 186 705 3 30 8 62 10 70 19 69 27 556 12
680 -23 179 -44 288 -84 425 -73 256 -185 460 -329 601 -140 137 -302 193
-457 158z m389 -813 c65 -30 107 -117 139 -291 14 -75 14 -338 0 -425 -6 -37
-50 -240 -59 -275 -40 -145 -120 -349 -207 -524 -139 -279 -217 -385 -474
-637 -239 -235 -274 -264 -276 -232 -1 24 -7 55 -25 132 -9 37 -18 77 -20 91
-2 14 -9 45 -14 70 -14 66 -21 101 -25 137 -2 18 -6 40 -9 50 -3 10 -8 47 -11
83 -4 36 -10 97 -15 135 -8 74 -6 422 4 465 3 14 7 45 10 70 13 111 66 310
117 437 127 319 344 571 594 688 100 47 203 57 271 26z m-821 -3682 c14 -63
28 -125 30 -139 3 -14 14 -68 25 -120 12 -52 23 -106 26 -120 2 -14 10 -50 16
-80 6 -30 12 -59 14 -65 1 -5 16 -74 33 -153 17 -79 31 -149 31 -157 0 -7 -17
-19 -37 -26 -60 -19 -191 -87 -279 -144 -165 -107 -321 -259 -433 -420 -156
-225 -245 -491 -243 -725 1 -130 21 -242 63 -356 22 -58 86 -184 99 -194 4 -3
9 -10 11 -16 5 -15 63 -87 119 -148 72 -78 214 -189 315 -246 68 -39 234 -120
245 -120 6 0 18 -4 28 -10 59 -34 157 -58 126 -32 -5 5 -52 44 -104 87 -175
146 -330 323 -330 378 0 9 -4 18 -9 21 -5 3 -12 27 -16 53 -5 27 -10 55 -11
63 -6 31 -17 178 -17 235 -1 429 210 752 563 861 25 8 50 14 56 14 8 0 49
-163 46 -185 0 -2 4 -19 9 -37 8 -28 24 -98 45 -203 2 -11 6 -29 9 -40 5 -23
30 -144 55 -265 10 -47 36 -173 59 -280 23 -107 44 -204 46 -215 3 -11 16 -74
30 -140 15 -66 39 -184 55 -263 16 -79 32 -147 34 -151 3 -4 8 -30 12 -57 3
-27 8 -52 10 -55 2 -3 6 -19 9 -35 3 -16 13 -68 24 -116 10 -49 17 -88 16 -88
-1 0 -37 -9 -81 -20 -146 -38 -204 -44 -394 -45 -139 0 -253 7 -314 20 -433
89 -738 265 -994 574 -208 251 -373 621 -408 916 -2 24 -7 54 -10 66 -6 31 -7
316 -1 326 3 5 7 35 11 68 3 33 15 96 26 140 11 44 22 88 25 97 8 36 79 205
107 258 37 68 134 214 169 255 69 79 296 333 319 356 14 14 49 53 79 85 30 32
100 109 157 169 133 143 144 155 244 265 47 51 94 103 105 114 11 12 49 54 84
94 35 40 66 71 68 69 1 -2 14 -55 28 -118z m769 -1550 c180 -33 395 -144 527
-270 133 -128 248 -327 273 -472 3 -15 7 -35 10 -45 16 -52 22 -247 11 -347
-8 -71 -65 -304 -76 -311 -5 -3 -9 -13 -9 -22 0 -9 -18 -56 -39 -103 -80 -180
-226 -342 -397 -440 -58 -33 -73 -30 -74 13 0 10 -9 55 -20 102 -11 46 -22 97
-25 113 -2 15 -7 39 -10 53 -10 50 -66 307 -81 370 -9 36 -19 85 -24 110 -5
25 -12 56 -15 70 -3 14 -8 36 -11 50 -3 14 -18 84 -34 155 -16 72 -31 141 -34
155 -16 80 -39 186 -55 260 -10 47 -35 164 -56 260 -20 96 -43 200 -51 230
-24 94 -25 93 59 87 39 -4 99 -11 131 -18z"/>
</g>
</svg>
